<?xml version="1.0" standalone="no"?>
<!DOCTYPE svg PUBLIC "-//W3C//DTD SVG 20010904//EN"
 "http://www.w3.org/TR/2001/REC-SVG-20010904/DTD/svg10.dtd">
<svg version="1.0" xmlns="http://www.w3.org/2000/svg"
 width="233.000000pt" height="216.000000pt" viewBox="0 0 233.000000 216.000000"
 preserveAspectRatio="xMidYMid meet">

<g transform="translate(0.000000,216.000000) scale(0.100000,-0.100000)"
fill="#000000" stroke="none">
<path d="M976 2138 c-39 -35 -43 -78 -12 -115 25 -29 26 -37 26 -142 l0 -111
35 17 35 17 0 96 c0 83 3 98 20 112 58 50 19 148 -60 148 -10 0 -30 -10 -44
-22z"/>
<path d="M1555 2148 c-11 -6 -24 -17 -28 -25 -6 -10 -43 -13 -156 -13 -118 0
-151 -3 -161 -15 -7 -8 -14 -62 -17 -132 l-6 -118 37 -18 c20 -9 39 -17 41
-17 3 0 5 50 5 110 l0 110 130 0 c72 0 130 -4 130 -8 0 -11 46 -32 70 -32 10
0 31 11 46 24 73 62 -7 181 -91 134z"/>
<path d="M534 1896 c-54 -46 -30 -127 42 -142 24 -4 37 0 61 20 26 22 40 26
97 26 l66 0 0 -65 0 -65 35 17 36 17 -3 81 -3 80 -99 3 c-90 3 -102 5 -124 27
-31 32 -73 32 -108 1z"/>
<path d="M1615 1851 c-12 -5 -27 -16 -34 -25 -10 -12 -32 -16 -95 -16 -87 0
-106 -8 -106 -45 0 -28 65 -62 74 -39 4 9 21 14 55 14 40 0 55 -5 75 -25 37
-37 86 -34 121 7 21 25 25 38 21 62 -11 54 -65 86 -111 67z"/>
<path d="M849 1602 c-163 -86 -303 -163 -313 -171 -14 -12 -16 -50 -16 -351 0
-308 1 -338 18 -352 28 -25 609 -328 628 -328 18 0 597 303 627 328 16 14 17
44 17 352 0 308 -1 338 -17 352 -31 26 -610 328 -630 328 -10 0 -151 -71 -314
-158z m596 -65 c196 -103 273 -149 282 -167 9 -18 13 -98 13 -297 0 -268 0
-272 -22 -297 -20 -21 -532 -296 -552 -296 -21 0 -548 285 -561 303 -12 18
-15 69 -15 298 0 250 2 279 18 299 17 21 536 300 557 300 6 -1 131 -65 280
-143z"/>
<path d="M740 1080 l0 -170 55 0 55 0 1 73 0 72 37 -72 36 -73 53 0 53 0 0
170 0 170 -50 0 -50 0 0 -59 c0 -33 -4 -62 -8 -65 -5 -3 -24 24 -43 59 l-34
65 -52 0 -53 0 0 -170z"/>
<path d="M1090 1080 l0 -170 56 0 56 0 -4 50 -3 50 48 0 47 0 0 40 0 40 -45 0
-45 0 0 40 0 40 58 0 57 0 0 40 0 40 -112 0 -113 0 0 -170z"/>
<path d="M1360 1205 c0 -43 1 -45 30 -45 l30 0 0 -125 0 -125 55 0 55 0 0 125
0 125 30 0 c29 0 30 2 30 45 l0 45 -115 0 -115 0 0 -45z"/>
<path d="M265 1665 c-32 -32 -32 -75 0 -113 23 -27 25 -39 25 -119 0 -56 4
-93 12 -101 7 -7 39 -12 75 -12 l63 0 0 40 0 40 -40 0 -40 0 0 70 c0 39 4 70
10 70 18 0 42 60 35 91 -13 60 -95 80 -140 34z"/>
<path d="M1881 1664 c-28 -36 -26 -76 4 -112 20 -23 25 -41 25 -81 0 -28 -4
-51 -10 -51 -5 0 -10 -16 -10 -35 0 -34 1 -35 39 -35 48 0 51 7 51 111 0 60 4
81 14 85 40 15 37 112 -4 134 -36 20 -87 12 -109 -16z"/>
<path d="M2185 1615 c-31 -30 -32 -73 -5 -108 17 -22 20 -40 20 -146 l0 -121
-155 0 -155 0 0 -40 0 -40 179 0 c150 0 182 3 195 16 13 13 16 42 16 161 0
138 1 146 22 163 32 26 32 95 -1 121 -33 27 -86 25 -116 -6z"/>
<path d="M33 1235 c-29 -21 -38 -66 -19 -103 24 -47 84 -57 129 -22 22 18 40
20 161 20 l136 0 0 40 0 40 -136 0 c-121 0 -139 2 -161 20 -30 24 -80 26 -110
5z"/>
<path d="M2215 1071 c-12 -5 -27 -16 -34 -25 -11 -13 -37 -16 -152 -16 l-139
0 0 -35 0 -35 138 0 c133 0 138 -1 161 -25 33 -35 75 -33 113 5 25 26 29 36
24 63 -11 55 -64 87 -111 68z"/>
<path d="M60 981 c-5 -11 -10 -82 -10 -157 0 -124 -2 -140 -20 -159 -11 -11
-23 -35 -26 -53 -12 -61 78 -117 127 -79 41 32 49 81 19 120 -18 22 -20 40
-20 151 l0 126 155 0 155 0 0 35 0 35 -185 0 c-172 0 -185 -1 -195 -19z"/>
<path d="M1890 805 c0 -34 1 -35 40 -35 l40 0 0 -66 c0 -56 -4 -71 -25 -96
-33 -39 -32 -73 4 -109 43 -42 106 -34 130 18 17 36 13 59 -14 91 -22 26 -25
40 -27 128 l-3 99 -72 3 -73 3 0 -36z"/>
<path d="M368 809 c-15 -8 -18 -24 -18 -89 0 -68 -3 -84 -26 -117 -30 -44 -26
-76 12 -110 78 -70 185 45 109 117 -21 19 -25 33 -25 77 0 29 5 53 10 53 6 0
10 18 10 40 0 37 -2 40 -27 40 -16 0 -36 -5 -45 -11z"/>
<path d="M593 448 c-31 -34 -36 -63 -18 -98 27 -52 92 -62 131 -19 14 16 31
19 99 19 90 0 105 8 105 55 0 26 -6 34 -34 48 -34 16 -35 16 -38 -6 -3 -19
-10 -22 -55 -25 -44 -3 -55 1 -77 23 -33 33 -84 34 -113 3z"/>
<path d="M1452 452 l-33 -16 3 -71 3 -70 100 -3 c68 -2 103 -7 110 -16 33 -43
87 -46 127 -6 25 26 29 36 24 63 -7 38 -48 77 -81 77 -13 0 -37 -11 -53 -25
-25 -21 -40 -25 -95 -25 l-66 0 -3 54 -3 53 -33 -15z"/>
<path d="M1020 250 l0 -120 -120 0 c-102 0 -124 3 -152 20 -43 26 -71 25 -104
-4 -73 -62 5 -179 89 -135 12 7 26 18 30 25 6 11 42 14 155 14 102 0 152 4
160 12 8 8 12 55 12 145 l0 132 -30 16 c-16 8 -31 15 -35 15 -3 0 -5 -54 -5
-120z"/>
<path d="M1263 352 l-33 -16 0 -87 c0 -63 -4 -90 -14 -96 -18 -11 -36 -47 -36
-73 0 -30 53 -80 85 -80 34 0 85 50 85 83 0 14 -11 39 -25 55 -22 26 -25 40
-27 129 l-3 100 -32 -15z"/>
</g>
</svg>
