<?xml version="1.0" standalone="no"?>
<!DOCTYPE svg PUBLIC "-//W3C//DTD SVG 20010904//EN"
 "http://www.w3.org/TR/2001/REC-SVG-20010904/DTD/svg10.dtd">
<svg version="1.0" xmlns="http://www.w3.org/2000/svg"
 width="1000.000000pt" height="1000.000000pt" viewBox="0 0 1000.000000 1000.000000"
 preserveAspectRatio="xMidYMid meet">

<g transform="translate(0.000000,1000.000000) scale(0.100000,-0.100000)"
fill="#000000" stroke="none">
<path d="M3420 8150 c-36 -22 -68 -40 -72 -40 -18 0 -315 -145 -335 -163 -44
-39 -22 -137 44 -199 15 -15 49 -36 74 -47 43 -18 48 -23 54 -61 4 -23 4 -65
1 -93 -5 -39 2 -95 29 -225 19 -95 35 -193 35 -218 0 -57 26 -181 51 -251 l21
-53 -70 -173 c-39 -96 -84 -229 -102 -302 -17 -71 -49 -188 -71 -258 -66 -213
-79 -307 -85 -599 -4 -246 -3 -262 21 -378 40 -189 106 -364 175 -465 15 -22
45 -76 68 -120 22 -44 63 -118 92 -165 57 -95 150 -282 174 -353 24 -71 75
-267 90 -347 13 -65 12 -72 -3 -76 -54 -17 -96 -47 -219 -156 -75 -68 -175
-162 -222 -209 -193 -197 -669 -608 -872 -754 -38 -27 -118 -88 -176 -134
-126 -99 -210 -155 -308 -204 -140 -71 -314 -304 -372 -502 -39 -132 -72 -370
-72 -515 0 -41 -7 -140 -16 -220 -9 -86 -13 -177 -10 -225 4 -44 11 -148 16
-231 10 -156 15 -189 52 -331 l21 -83 224 0 223 0 2 38 c1 20 2 50 2 66 1 16
7 31 14 33 18 7 15 23 -5 23 -14 0 -14 2 2 20 18 19 17 20 -3 20 -12 0 -22 5
-22 10 0 6 7 10 15 10 8 0 15 6 15 13 0 12 53 67 64 67 11 0 -2 -32 -22 -53
-23 -24 -30 -43 -12 -32 5 3 10 1 10 -4 0 -6 -5 -11 -10 -11 -16 0 -10 -111 7
-140 35 -58 42 -60 254 -60 191 0 196 1 250 27 29 14 66 37 80 50 17 16 29 21
33 14 4 -6 1 -11 -7 -11 -10 0 -12 -9 -8 -37 l6 -38 383 -3 383 -2 -1 22 c-3
35 -1 52 7 45 9 -10 33 13 33 32 0 26 44 111 57 111 7 0 19 16 28 36 8 20 19
33 25 29 6 -4 17 -2 24 4 10 8 22 8 40 1 17 -6 34 -7 44 -1 23 13 52 48 45 55
-3 3 4 27 17 53 19 41 21 52 10 86 -6 21 -9 42 -6 45 3 3 6 1 6 -4 0 -6 7 -19
16 -30 14 -18 15 -18 9 6 -3 14 -14 54 -25 90 -10 36 -23 85 -28 110 -8 39
-10 41 -11 14 -2 -46 17 -137 30 -145 12 -7 4 -29 -10 -29 -21 0 -55 158 -72
335 -1 5 -5 -1 -9 -15 -6 -19 -8 -9 -9 38 -1 67 -28 136 -62 160 -10 7 -25 19
-33 28 -12 11 -20 12 -34 5 -11 -6 -22 -8 -25 -4 -4 3 -13 0 -22 -7 -13 -10
-15 -9 -15 9 0 11 -6 21 -13 21 -21 0 -57 -44 -57 -71 0 -42 -11 -66 -35 -77
-13 -6 -29 -22 -37 -35 -7 -13 -27 -48 -45 -77 -17 -29 -29 -59 -26 -66 4 -10
-3 -14 -22 -14 -24 0 -26 3 -21 26 5 18 3 25 -5 22 -15 -5 -32 -48 -19 -48 6
0 10 -7 10 -15 0 -8 -6 -15 -13 -15 -8 0 -22 -9 -32 -20 -31 -34 -37 -24 -29
43 4 34 7 72 7 85 -1 12 2 22 6 22 4 0 15 51 26 113 18 116 17 206 -4 278 -12
40 -48 82 -62 73 -5 -3 -8 -2 -7 3 3 9 -5 13 -28 13 -13 0 -15 -7 -9 -40 8
-48 8 -48 -99 -53 -47 -2 -81 -8 -84 -15 -2 -6 -10 -8 -18 -5 -8 3 -42 -22
-87 -66 -41 -39 -77 -71 -81 -71 -4 0 -19 -14 -33 -30 -13 -17 -28 -28 -31
-26 -4 2 -18 -11 -32 -29 -22 -29 -61 -61 -110 -90 -10 -6 -31 -26 -46 -45
-16 -19 -37 -42 -46 -52 -10 -10 -18 -22 -18 -27 0 -4 -12 -24 -28 -43 -101
-128 -137 -195 -146 -272 -5 -38 -47 -136 -59 -136 -1 0 -1 64 0 142 1 143 1
143 25 144 43 1 47 4 63 34 20 39 20 134 -1 165 -17 27 -13 55 9 55 16 0 21
46 6 56 -8 4 -7 9 2 15 9 5 6 11 -13 20 -61 27 -50 118 19 159 42 25 46 25 38
0 -3 -11 -2 -28 4 -37 10 -17 10 -17 11 2 l1 20 11 -20 c21 -35 32 -40 102
-42 48 -2 79 3 100 14 17 9 42 22 56 29 42 21 65 127 39 176 -10 19 -9 20 12
15 35 -7 101 32 112 66 5 16 24 52 43 80 24 36 34 63 34 89 0 43 -7 46 -38 18
-12 -11 -25 -20 -30 -20 -4 0 -29 -13 -55 -30 -26 -16 -47 -27 -47 -24 0 7 75
78 114 107 15 12 36 30 45 40 21 24 167 139 206 161 37 22 113 113 141 169 12
23 38 73 58 112 33 61 38 81 43 160 3 49 10 95 15 102 5 7 5 14 -2 18 -5 3
-10 19 -10 34 0 25 6 29 63 49 74 26 112 23 146 -10 14 -13 43 -35 64 -47 20
-12 37 -26 37 -29 0 -9 107 -9 116 1 4 4 49 7 100 7 57 0 94 4 96 11 3 8 21 8
65 0 34 -7 130 -16 215 -21 265 -16 320 -20 428 -35 105 -14 425 -38 531 -40
47 0 67 -7 120 -39 117 -71 167 -97 173 -88 19 31 -126 172 -176 172 -10 0
-35 9 -55 20 -21 11 -45 20 -54 20 -8 0 -45 9 -80 20 -68 21 -188 29 -714 51
-143 5 -288 12 -323 15 l-62 6 22 31 c13 18 31 50 41 71 21 48 41 179 32 214
-5 22 -4 24 9 13 12 -10 15 -8 21 8 3 12 13 21 20 21 8 0 19 9 25 20 6 11 16
20 23 20 13 1 68 82 78 115 3 11 10 19 16 18 5 -1 8 9 6 22 -4 17 1 25 17 30
21 7 22 11 16 64 -4 39 -2 69 8 96 8 22 15 36 15 32 1 -10 31 18 31 28 0 4 -7
5 -15 1 -8 -3 -15 -1 -15 4 0 6 9 10 21 10 15 0 19 5 15 15 -3 9 0 15 10 15
11 0 14 6 10 16 -3 9 -6 17 -6 20 0 2 -6 1 -13 -2 -31 -12 -50 241 -25 330 6
22 15 46 20 52 5 6 6 18 3 26 -4 9 8 36 24 61 19 28 31 58 31 78 0 27 3 31 11
19 8 -12 9 -11 5 5 -15 64 -17 67 -34 53 -15 -11 -15 -11 -4 3 10 13 7 29 -20
90 -26 61 -31 86 -31 144 1 69 27 154 52 169 6 4 11 18 11 32 0 14 6 24 15 24
9 0 12 6 9 15 -4 8 -2 15 2 15 5 0 15 14 22 30 8 17 19 30 25 30 14 1 47 68
47 95 0 10 6 26 13 34 19 22 67 138 67 161 0 27 32 90 42 84 4 -3 8 2 8 11 0
8 10 20 23 25 12 5 18 9 12 9 -19 2 75 78 102 84 33 6 81 50 94 85 5 13 13 21
18 18 4 -3 19 6 32 20 13 14 39 35 57 46 19 12 31 26 28 34 -3 7 -2 15 2 17 4
2 2 2 -5 1 -22 -5 -24 15 -3 26 24 13 26 33 4 55 -10 10 -13 22 -8 33 4 9 6
21 5 26 -1 5 7 6 19 3 11 -3 18 -1 14 4 -3 5 -14 9 -25 9 -10 0 -19 4 -19 8 0
5 -18 21 -40 38 -44 32 -48 48 -22 77 16 19 16 19 -5 13 -15 -5 -27 0 -42 15
-12 13 -21 26 -21 31 0 18 -28 6 -35 -14 -7 -22 -8 -21 -12 7 -6 37 -21 56
-42 53 -11 -2 -15 3 -13 17 5 26 4 42 -4 88 -5 28 -11 37 -23 35 -9 -2 -15
-11 -13 -21 3 -16 1 -16 -17 2 -12 12 -34 21 -51 21 -17 0 -38 4 -48 9 -116
62 -191 74 -254 41 -35 -18 -52 -21 -106 -16 -36 3 -71 11 -79 17 -11 9 -12 9
-8 -4 8 -20 -43 -67 -72 -67 -15 0 -23 -6 -23 -17 0 -10 -7 -27 -15 -37 -8
-11 -15 -36 -15 -57 0 -44 -26 -74 -32 -37 -2 13 3 35 11 50 8 15 12 31 8 35
-14 13 -31 -17 -42 -74 -10 -49 -15 -58 -32 -56 -14 2 -23 -5 -26 -19 -5 -17
-11 -19 -32 -14 -15 4 -32 3 -38 -3 -7 -5 -31 -14 -54 -20 -24 -7 -43 -16 -43
-21 0 -6 -8 -10 -18 -10 -28 0 -44 80 -41 212 3 157 9 166 102 160 15 -1 27 3
27 8 0 6 11 16 25 22 14 6 25 17 25 24 0 7 5 14 11 16 20 7 -8 73 -50 119 -22
23 -43 39 -48 36 -12 -8 -65 27 -56 37 4 4 1 5 -7 2 -31 -12 -44 11 -44 76 -1
88 7 189 14 193 4 2 7 37 8 77 1 40 7 96 13 123 15 68 10 101 -16 97 -71 -11
-168 -2 -187 16 -4 4 -4 21 1 37 6 25 12 29 34 27 34 -4 35 13 3 76 -44 89
-75 204 -86 317 -5 61 -14 126 -20 145 -18 63 -10 56 23 -20 81 -186 144 -290
165 -276 24 15 10 71 -57 234 -82 198 -76 181 -105 331 l-23 120 29 -6 c23 -5
34 1 63 31 19 21 39 51 44 69 7 26 9 16 10 -53 1 -56 10 -120 26 -185 14 -55
31 -146 37 -202 12 -101 20 -123 33 -83 7 21 53 50 80 50 9 0 15 9 15 25 0 29
25 42 96 50 58 7 57 -11 -1 -19 -46 -7 -60 -28 -27 -41 35 -14 158 -18 180 -6
26 14 28 36 5 49 -13 8 -7 11 28 17 24 5 60 9 79 9 28 1 36 6 38 23 5 36 -27
44 -145 39 -103 -5 -102 -4 37 9 103 10 161 12 199 5 72 -13 71 -13 71 10 0
23 -36 49 -83 60 -23 6 -26 8 -9 9 12 1 22 6 22 12 0 6 -7 8 -16 5 -8 -3 -12
-2 -9 4 3 6 -1 11 -9 11 -44 4 -74 18 -79 39 -4 15 -14 20 -36 20 -37 0 -111
66 -111 98 0 37 -12 51 -46 58 -36 7 -54 28 -54 63 0 13 6 21 17 21 15 0 14 2
-2 23 -10 12 34 -30 96 -94 129 -132 170 -165 252 -205 46 -23 61 -37 78 -70
24 -50 43 -68 64 -60 22 8 18 44 -11 93 -23 40 -94 103 -116 103 -21 0 -159
112 -209 170 -57 66 -221 209 -242 211 -136 10 -237 -56 -311 -204 l-39 -77
-41 6 c-56 8 -167 41 -187 57 -18 14 -49 70 -49 89 0 13 96 62 290 151 41 19
92 47 113 61 21 14 49 26 62 26 28 0 139 -39 245 -85 276 -121 295 -132 428
-232 46 -34 104 -75 130 -90 71 -40 162 -112 162 -127 0 -22 74 -27 255 -16
94 5 213 9 265 8 l95 -2 -75 -6 c-41 -4 -58 -7 -38 -8 29 -2 36 -5 32 -17 -8
-21 33 -105 51 -105 8 0 15 -4 15 -10 0 -5 -5 -10 -11 -10 -8 0 -8 -4 0 -14 6
-8 11 -18 10 -22 -5 -31 3 -64 16 -64 8 0 15 -5 15 -11 0 -6 -7 -9 -15 -5 -21
8 -19 -8 5 -29 11 -10 20 -26 20 -37 0 -10 6 -18 14 -18 9 0 13 8 10 23 -4 20
-4 20 5 2 4 -11 7 -33 5 -48 -2 -21 1 -27 14 -25 9 2 17 -2 17 -9 0 -6 3 -14
7 -18 4 -4 4 -13 1 -21 -3 -9 2 -12 17 -9 19 4 20 2 8 -12 -9 -12 -9 -15 0 -9
7 4 12 2 12 -7 0 -8 8 -18 17 -21 11 -4 13 -10 7 -14 -7 -5 -6 -23 4 -56 8
-27 17 -44 21 -38 4 6 15 -11 24 -38 10 -29 24 -50 32 -50 8 0 15 -5 15 -11 0
-5 4 -8 8 -5 5 3 26 0 47 -5 37 -11 39 -10 70 27 l32 38 -4 105 c-4 143 -6
163 -19 186 -6 11 -9 25 -7 32 2 6 -4 17 -14 25 -10 7 -18 20 -18 28 0 8 -5
14 -12 13 -6 -1 -14 10 -18 26 -3 15 -19 41 -35 56 -17 16 -30 35 -30 42 0 7
-4 12 -8 11 -5 -2 -32 20 -61 47 -29 28 -71 60 -94 73 l-42 23 165 -5 c101 -3
186 -10 220 -19 54 -15 55 -15 77 9 13 14 34 24 50 24 15 0 69 22 118 49 50
26 134 71 187 99 53 29 148 74 210 101 62 26 187 85 276 130 196 98 193 98
270 -10 108 -150 185 -213 277 -226 77 -10 85 -64 20 -121 -61 -55 -239 -95
-319 -72 -25 7 -50 18 -54 24 -4 6 -9 63 -12 126 -9 180 -53 249 -149 234 -44
-7 -113 -45 -94 -51 16 -6 -50 -58 -206 -162 -187 -126 -275 -192 -296 -225
-20 -30 -36 -115 -23 -122 5 -4 22 6 38 21 23 22 31 25 49 16 17 -9 43 -3 147
36 85 32 129 43 131 36 3 -7 32 -16 66 -20 l62 -8 -102 -5 c-79 -4 -106 -9
-120 -22 -16 -17 -16 -19 -1 -35 15 -15 27 -15 115 -4 53 6 110 18 126 26 21
11 34 12 49 4 29 -16 16 -33 -28 -39 -51 -7 -64 -16 -64 -45 0 -29 16 -35 101
-35 87 0 128 -20 129 -62 0 -14 -4 -16 -25 -8 -18 7 -28 5 -40 -7 -15 -14 -14
-17 2 -35 13 -15 26 -19 51 -14 27 4 43 -2 84 -31 47 -34 52 -35 63 -19 10 13
14 14 18 4 4 -9 6 -8 6 3 1 9 8 22 16 29 19 16 19 44 1 73 -18 28 -30 157 -14
157 6 0 8 12 6 29 -4 26 -1 30 25 35 16 3 40 6 52 6 23 0 23 -1 10 -50 -7 -28
-16 -103 -20 -168 -7 -119 -18 -155 -67 -225 -42 -59 1 -101 52 -52 56 53 73
114 81 285 7 160 19 224 43 233 11 5 11 -2 0 -40 -9 -30 -14 -97 -14 -187 0
-172 -18 -263 -61 -324 -33 -45 -32 -70 1 -79 11 -3 20 -11 20 -18 0 -8 16
-44 36 -82 20 -37 47 -99 61 -138 14 -38 61 -135 103 -215 140 -261 240 -502
240 -579 0 -61 -20 -141 -47 -192 -21 -39 -29 -46 -51 -43 -15 1 -28 7 -30 13
-2 5 -26 17 -53 26 -35 12 -54 25 -64 46 -9 16 -18 29 -21 29 -3 0 -2 -5 1
-10 4 -6 2 -17 -5 -25 -10 -12 -17 -11 -45 5 -29 16 -44 18 -100 11 -47 -5
-71 -13 -85 -29 -25 -26 -25 -27 1 -53 14 -14 36 -22 68 -23 26 -2 52 -6 58
-9 6 -4 24 0 39 8 39 20 72 19 122 -5 47 -23 68 -25 75 -7 3 7 6 5 6 -5 1 -10
8 -18 17 -18 12 0 14 -7 9 -32 -5 -29 -63 -158 -71 -158 -1 0 -43 15 -92 34
-50 19 -99 32 -110 29 -12 -3 -52 12 -98 35 -119 60 -185 41 -129 -37 14 -20
37 -52 50 -71 14 -19 38 -47 53 -61 16 -14 26 -31 24 -37 -2 -7 2 -12 8 -12
21 0 71 -42 66 -55 -5 -15 19 -41 26 -28 3 4 3 2 2 -4 -6 -22 50 -103 66 -97
8 3 12 2 8 -1 -3 -4 0 -18 7 -32 8 -15 12 -30 9 -35 -3 -5 -30 -8 -61 -7 -40
2 -56 6 -60 18 -13 40 -14 46 -13 49 3 10 -69 62 -87 62 -24 0 -43 16 -77 62
-11 15 -23 25 -28 22 -4 -3 -8 2 -8 10 0 15 -26 46 -38 46 -4 0 -14 -5 -22
-10 -13 -9 -12 -13 6 -28 20 -16 24 -30 36 -140 1 -7 20 -32 44 -54 24 -23 40
-46 37 -54 -5 -15 47 -124 59 -124 13 0 20 42 13 78 -4 21 -3 34 1 29 4 -4 11
-33 15 -65 3 -32 17 -80 29 -108 13 -27 22 -53 21 -57 -1 -5 8 -11 19 -14 11
-3 20 -8 21 -12 0 -3 2 -15 4 -25 2 -10 -3 -29 -12 -43 -10 -15 -13 -34 -9
-54 8 -40 -26 -89 -155 -225 -54 -57 -103 -112 -109 -123 -5 -11 -61 -63 -123
-114 -89 -74 -126 -113 -175 -185 -34 -50 -62 -95 -62 -101 0 -13 25 -14 48
-2 16 9 17 3 10 -67 -4 -42 -16 -108 -28 -147 -12 -40 -24 -113 -27 -171 -5
-87 -3 -106 15 -147 12 -26 27 -47 34 -47 8 0 26 19 41 42 25 39 27 40 27 16
0 -15 5 -30 10 -33 6 -3 10 -18 10 -34 0 -18 17 -48 55 -91 30 -37 60 -83 67
-108 7 -23 17 -42 23 -42 5 -1 34 -22 63 -49 52 -46 53 -48 40 -77 -7 -16 -17
-33 -23 -37 -6 -5 -4 -7 5 -6 36 4 50 -3 63 -28 7 -16 19 -27 25 -26 7 2 12
-1 12 -5 0 -4 15 -24 33 -43 61 -67 92 -106 107 -133 16 -31 70 -94 118 -139
17 -17 32 -36 32 -44 0 -7 11 -13 23 -13 14 0 36 -14 55 -34 17 -19 49 -44 71
-57 23 -12 41 -27 41 -31 0 -5 4 -7 9 -4 14 9 42 -5 34 -17 -4 -6 2 -8 15 -5
12 4 20 2 16 -3 -5 -9 9 -13 35 -10 7 2 10 -2 7 -8 -3 -5 7 -12 24 -16 16 -4
30 -11 30 -16 0 -6 -7 -6 -18 0 -10 5 -50 15 -88 22 -65 11 -145 47 -203 91
-19 14 -26 16 -32 6 -6 -10 -12 -8 -23 7 -27 36 -17 4 13 -38 15 -23 36 -55
45 -70 9 -15 21 -25 26 -22 6 3 7 -1 4 -9 -4 -10 -1 -16 9 -16 8 0 20 -7 27
-15 7 -9 38 -27 69 -41 31 -14 64 -35 74 -45 10 -11 23 -17 28 -13 5 3 15 1
22 -4 7 -5 26 -13 42 -17 17 -5 37 -10 45 -13 8 -2 69 -6 135 -8 92 -3 123 -7
131 -19 12 -17 44 -21 44 -5 0 5 7 7 15 4 11 -5 15 -22 15 -68 0 -39 -3 -56
-9 -47 -12 19 -61 0 -80 -31 -38 -61 -61 -109 -61 -127 0 -12 -5 -21 -11 -21
-5 0 -7 6 -3 13 5 8 4 9 -3 2 -23 -23 -31 -94 -17 -142 15 -51 37 -83 28 -42
-5 19 -4 21 5 9 6 -8 11 -25 11 -37 0 -12 5 -25 10 -28 6 -3 10 -15 10 -26 0
-10 5 -19 11 -19 7 0 9 -9 6 -23 -3 -12 0 -30 8 -41 12 -15 11 -23 -3 -55 -9
-20 -20 -37 -25 -39 -4 -2 -7 -11 -7 -20 0 -11 -19 -26 -49 -40 -37 -16 -52
-30 -60 -54 -14 -39 -14 -99 0 -158 22 -93 13 -155 -67 -439 -48 -170 -59
-200 -116 -320 -42 -91 -48 -112 -46 -158 l3 -53 93 0 c89 0 92 1 92 23 -1 21
-1 22 -15 3 -18 -24 -19 -16 -4 18 7 14 15 23 19 21 4 -3 7 1 6 8 0 6 7 36 18
66 14 40 21 50 28 40 7 -11 8 -10 4 4 -3 10 5 62 19 116 18 72 65 327 65 354
0 3 67 6 163 7 15 1 27 5 27 11 0 5 8 12 18 16 9 3 26 13 36 22 11 9 16 11 13
4 -4 -6 -3 -14 2 -18 14 -8 37 43 39 85 3 46 7 68 22 105 6 17 12 53 13 80 1
50 1 51 32 47 l32 -4 -18 -63 c-13 -47 -14 -66 -6 -74 9 -9 8 -14 -2 -20 -8
-5 -11 -16 -8 -25 4 -10 1 -19 -8 -22 -9 -4 -15 -19 -15 -36 0 -25 -42 -121
-60 -138 -3 -3 -12 -24 -20 -48 -7 -24 -22 -52 -32 -64 -10 -12 -18 -24 -19
-27 0 -3 -3 -24 -6 -46 -2 -22 -8 -69 -11 -105 -5 -48 -11 -66 -23 -68 -18 -3
-59 57 -59 86 0 15 -2 15 -11 2 -8 -11 -9 -9 -3 10 4 14 12 29 18 33 8 6 8 10
-1 14 -18 7 -16 24 1 17 8 -3 16 4 20 18 9 35 7 68 -4 68 -5 0 -10 -7 -10 -16
0 -9 -9 -18 -19 -21 -21 -5 -35 -29 -26 -44 3 -5 -6 -26 -20 -46 -14 -21 -25
-45 -25 -54 0 -8 -13 -31 -30 -49 -21 -23 -30 -45 -31 -69 -1 -20 -3 -28 -6
-18 -8 32 -23 17 -23 -24 0 -32 6 -47 26 -65 14 -13 22 -24 18 -24 -4 0 0 -8
9 -17 8 -10 19 -30 22 -45 7 -27 10 -28 66 -28 l59 0 -6 29 c-4 21 -1 33 15
47 11 11 24 31 29 44 9 24 10 24 17 5 4 -11 11 -31 17 -45 10 -24 11 -24 19
-5 5 14 8 16 9 5 1 -8 3 -19 4 -25 0 -5 8 -20 16 -33 l15 -22 323 0 323 0 -5
52 c-3 29 -11 136 -18 237 -11 164 -10 201 6 340 26 222 35 350 42 566 5 162
3 212 -15 345 -38 276 -41 294 -56 340 -24 72 -105 171 -211 259 -55 45 -139
118 -189 163 -188 170 -335 284 -428 333 -91 47 -125 71 -242 170 -78 66 -340
264 -511 385 -317 225 -377 267 -435 304 l-61 39 7 54 c14 111 54 250 89 311
21 35 64 85 102 118 36 32 79 78 96 102 17 24 59 76 95 115 170 186 306 423
358 620 15 54 38 128 52 165 24 66 43 187 48 312 1 44 11 86 30 130 97 228 95
219 95 318 0 75 -5 109 -26 170 -24 70 -142 335 -181 407 -58 107 -97 173
-118 201 -14 18 -34 55 -45 83 -32 82 -70 153 -101 189 -34 39 -34 38 -10 93
26 58 41 184 41 344 0 122 2 134 29 190 17 37 44 72 69 92 50 40 78 105 67
159 -10 54 -50 90 -117 103 -74 16 -128 56 -186 139 -26 37 -67 88 -92 113
-37 39 -54 48 -94 54 -33 5 -55 4 -65 -4 -9 -6 -97 -51 -196 -100 -596 -292
-722 -355 -735 -367 -12 -10 -26 -11 -55 -4 -22 6 -175 14 -340 20 -165 5
-354 15 -419 21 -130 12 -238 7 -291 -15 -31 -13 -35 -13 -56 10 -13 14 -64
52 -114 86 -49 34 -110 78 -135 98 -75 62 -180 125 -280 170 -201 89 -247 109
-318 134 -104 37 -143 35 -222 -14z m3114 -299 c4 -5 -3 -7 -14 -4 -23 6 -26
13 -6 13 8 0 17 -4 20 -9z m-68 -33 c-9 -13 -20 -32 -25 -43 -14 -33 -36 -46
-61 -37 -21 8 -19 11 36 55 33 26 61 47 63 47 2 0 -4 -10 -13 -22z m81 -20
c-3 -8 -6 -5 -6 6 -1 11 2 17 5 13 3 -3 4 -12 1 -19z m10 -60 c-3 -7 -5 -2 -5
12 0 14 2 19 5 13 2 -7 2 -19 0 -25z m-394 -145 c-9 -16 -25 -37 -34 -48 -10
-11 -19 -24 -20 -30 -1 -5 -36 -22 -77 -37 -73 -27 -74 -27 -59 -5 12 19 189
147 203 147 2 0 -3 -12 -13 -27z m-2678 -23 c3 -5 1 -10 -4 -10 -6 0 -11 5
-11 10 0 6 2 10 4 10 3 0 8 -4 11 -10z m1651 1 c-4 -5 0 -12 6 -14 8 -3 6 -6
-4 -6 -10 -1 -18 -7 -18 -15 0 -16 -27 -29 -35 -16 -9 15 7 41 22 35 11 -3 13
-1 9 10 -3 9 0 15 10 15 8 0 13 -4 10 -9z m-1088 -68 c-10 -2 -26 -2 -35 0
-10 3 -2 5 17 5 19 0 27 -2 18 -5z m-93 -13 c-27 -12 -43 -12 -25 0 8 5 22 9
30 9 10 0 8 -3 -5 -9z m-448 -42 c-3 -7 -5 -2 -5 12 0 14 2 19 5 13 2 -7 2
-19 0 -25z m1623 -98 c0 -4 -6 -10 -13 -13 -8 -3 -14 4 -15 20 -2 22 0 24 13
13 8 -7 15 -16 15 -20z m26 -55 c-12 -12 -15 -12 -19 4 -2 10 0 26 6 36 9 18
11 17 19 -4 5 -15 4 -27 -6 -36z m1561 -27 c-2 -13 -4 -5 -4 17 -1 22 1 32 4
23 2 -10 2 -28 0 -40z m-1428 -268 c0 -10 -3 -8 -9 5 -12 27 -12 43 0 25 5 -8
9 -22 9 -30z m-569 -1500 c0 -5 -2 -10 -4 -10 -3 0 -8 5 -11 10 -3 6 -1 10 4
10 6 0 11 -4 11 -10z m-279 -17 c10 3 23 -1 30 -9 6 -8 28 -14 48 -14 36 0 91
-19 91 -31 0 -10 -40 -19 -87 -19 -30 0 -45 5 -52 18 -6 10 -11 12 -12 5 -1
-7 -2 -17 -3 -23 0 -5 -4 -9 -7 -7 -4 1 -17 -7 -29 -18 -12 -11 -24 -19 -26
-17 -15 9 -24 -2 -18 -25 4 -20 3 -24 -4 -14 -8 11 -12 10 -21 -5 -6 -11 -11
-13 -11 -6 0 6 -7 12 -15 12 -33 0 -34 34 -2 102 l31 65 34 -9 c19 -5 43 -7
53 -5z m-731 -7 c0 -3 -25 -18 -55 -34 -30 -17 -55 -27 -55 -24 0 4 21 19 48
33 47 27 62 33 62 25z m584 -42 c-3 -35 -14 -44 -14 -12 0 21 7 38 15 38 1 0
1 -12 -1 -26z m143 -100 c-9 -9 -28 6 -21 18 4 6 10 6 17 -1 6 -6 8 -13 4 -17z
m-137 -14 c0 -5 -5 -10 -11 -10 -5 0 -7 5 -4 10 3 6 8 10 11 10 2 0 4 -4 4
-10z m-140 -27 c0 -3 -12 -30 -27 -59 -19 -37 -40 -62 -70 -81 -24 -15 -43
-32 -43 -39 0 -6 -16 -20 -36 -29 -43 -20 -112 -15 -152 11 -13 9 -33 14 -43
11 -10 -3 -19 -1 -19 4 0 5 11 9 24 9 14 0 31 6 38 13 7 7 28 18 46 25 17 6
42 22 55 35 12 14 56 39 97 57 41 18 82 36 90 40 18 11 40 12 40 3z m190 -58
c0 -8 -4 -15 -10 -15 -5 0 -10 7 -10 15 0 8 5 15 10 15 6 0 10 -7 10 -15z
m-86 -11 c3 -8 2 -12 -4 -9 -6 3 -10 10 -10 16 0 14 7 11 14 -7z m586 -34 c0
-13 -11 -13 -30 0 -12 8 -11 10 8 10 12 0 22 -4 22 -10z m-572 -94 c2 -38 0
-56 -6 -48 -6 9 -17 -8 -36 -60 -15 -40 -29 -82 -30 -93 -2 -11 -9 -19 -15
-17 -16 3 -49 -33 -53 -60 -2 -16 -9 -23 -23 -22 -19 2 -85 -73 -85 -96 0 -6
-4 -10 -9 -10 -5 0 -12 -12 -15 -26 -4 -14 -18 -38 -33 -52 -14 -15 -22 -21
-18 -13 4 8 2 17 -6 22 -12 7 -11 9 1 9 12 1 11 3 -3 14 -10 8 -18 17 -18 20
0 8 -28 57 -64 114 -17 26 -41 70 -54 97 -12 28 -32 58 -44 67 -22 17 -21 17
10 6 22 -8 36 -9 43 -2 7 7 29 7 68 1 63 -11 196 -1 187 14 -4 5 1 6 11 2 13
-5 15 -2 9 18 -5 19 -4 21 5 9 9 -13 12 -12 25 4 8 11 15 16 15 11 0 -4 14 6
30 23 17 18 30 39 30 47 0 9 5 13 10 10 6 -3 10 1 10 10 0 10 -5 14 -12 10 -7
-4 -5 0 6 9 11 9 16 22 12 31 -3 9 0 22 6 29 22 23 42 -11 46 -78z m9 72 c-3
-8 -6 -5 -6 6 -1 11 2 17 5 13 3 -3 4 -12 1 -19z m-97 -91 c0 -8 -7 -14 -15
-14 -11 0 -12 4 -4 14 6 7 13 13 15 13 2 0 4 -6 4 -13z m-80 -57 c0 -5 -2 -10
-4 -10 -3 0 -8 5 -11 10 -3 6 -1 10 4 10 6 0 11 -4 11 -10z m-100 -53 c11 -5
9 -6 -4 -4 -11 1 -21 9 -23 17 -3 10 -2 11 4 4 4 -6 15 -14 23 -17z m2860
-172 c0 -5 -5 -3 -10 5 -5 8 -10 20 -10 25 0 6 5 3 10 -5 5 -8 10 -19 10 -25z
m236 -1922 c56 -40 139 -93 185 -119 46 -25 129 -79 184 -119 55 -40 116 -80
135 -90 62 -32 218 -156 419 -333 l44 -39 -73 -7 -73 -6 -54 41 c-30 22 -57
48 -60 57 -15 50 -26 71 -33 67 -4 -3 -21 2 -36 10 -16 8 -35 15 -42 15 -7 0
-22 15 -33 34 -10 18 -47 55 -80 81 -34 27 -99 87 -145 135 -60 62 -104 97
-153 123 -122 64 -311 204 -311 229 0 11 5 8 126 -79z m-406 -19 c0 -14 -4
-23 -9 -20 -5 3 -7 15 -4 26 7 28 13 25 13 -6z m740 -688 c0 -3 -4 -8 -10 -11
-5 -3 -10 -1 -10 4 0 6 5 11 10 11 6 0 10 -2 10 -4z m54 -31 c20 -15 20 -15 0
-15 -10 0 -28 7 -38 15 -20 15 -20 15 0 15 10 0 28 -7 38 -15z m774 -149 c52
-50 102 -108 113 -128 13 -25 27 -99 44 -234 33 -263 34 -249 -17 -260 -50
-11 -102 -4 -106 14 -1 6 4 12 11 12 6 0 18 14 26 30 12 28 10 40 -18 128 -17
53 -46 124 -65 157 -96 174 -131 233 -157 266 -38 48 -36 63 6 88 19 11 35 26
35 32 0 16 19 0 128 -105z m-5508 -2 c0 -28 -58 -125 -118 -196 -72 -86 -90
-103 -79 -74 4 9 -2 17 -14 21 -13 5 -19 15 -19 37 0 25 15 45 79 108 81 80
151 128 151 104z m4857 -356 c-3 -8 -6 -5 -6 6 -1 11 2 17 5 13 3 -3 4 -12 1
-19z m-10 -50 c-3 -7 -5 -2 -5 12 0 14 2 19 5 13 2 -7 2 -19 0 -25z m263 -139
c0 -11 -4 -17 -10 -14 -5 3 -10 13 -10 21 0 8 5 14 10 14 6 0 10 -9 10 -21z
m-29 -31 c1 -34 25 -93 37 -91 11 3 92 -90 92 -106 0 -6 5 -11 10 -11 6 0 10
-8 10 -17 0 -9 3 -14 6 -10 14 13 35 -24 32 -55 l-3 -33 -47 48 c-27 26 -57
64 -67 85 -11 20 -37 56 -59 79 -21 23 -45 55 -52 73 -11 27 -11 32 6 45 27
20 34 18 35 -7z m-155 -185 c-11 -11 -17 4 -9 23 7 18 8 18 11 1 2 -10 1 -21
-2 -24z m739 -107 c-8 -52 -15 -115 -15 -138 0 -24 -4 -38 -8 -31 -4 7 -28 21
-54 33 -49 22 -58 40 -58 124 0 34 6 47 35 75 40 39 108 67 113 46 2 -7 -4
-56 -13 -109z m-6215 90 c0 -2 -11 -11 -25 -20 -24 -16 -25 -16 -25 4 0 15 7
20 25 20 14 0 25 -2 25 -4z m-33 -78 c-3 -8 -6 -5 -6 6 -1 11 2 17 5 13 3 -3
4 -12 1 -19z m6163 -227 c0 -26 -10 -51 -21 -51 -5 0 -9 16 -9 35 0 24 5 35
15 35 8 0 15 -9 15 -19z m22 -101 c23 0 28 -4 27 -22 0 -13 -4 -31 -8 -42 -6
-17 -9 -16 -26 10 -10 16 -25 35 -32 42 -7 7 -13 19 -13 25 0 8 4 7 12 -1 7
-7 25 -12 40 -12z m-5362 -133 c0 -7 -9 -18 -20 -25 -20 -12 -21 -12 -4 13 18
28 24 31 24 12z m-20 -67 c0 -5 -4 -10 -10 -10 -5 0 -10 5 -10 10 0 6 5 10 10
10 6 0 10 -4 10 -10z m5380 -16 c0 -22 -2 -25 -15 -14 -12 10 -13 16 -4 26 16
20 19 18 19 -12z m-5435 -84 c-3 -5 -12 -10 -18 -10 -7 0 -6 4 3 10 19 12 23
12 15 0z m-47 -50 c-22 -30 -35 -41 -22 -17 9 16 36 47 41 47 2 0 -6 -13 -19
-30z m-152 -199 c0 -12 -6 -17 -18 -13 -18 4 -18 5 -1 18 10 7 18 14 18 14 1
0 1 -8 1 -19z m-622 -93 c7 -5 5 -8 -6 -8 -14 0 -18 8 -17 33 2 27 2 28 6 7 3
-14 10 -28 17 -32z m5753 5 c-3 -10 -5 -4 -5 12 0 17 2 24 5 18 2 -7 2 -21 0
-30z m-5227 -3 c-29 -29 -43 -25 -17 4 12 13 25 22 29 20 4 -3 -2 -14 -12 -24z
m5237 -52 c-3 -8 -6 -5 -6 6 -1 11 2 17 5 13 3 -3 4 -12 1 -19z"/>
<path d="M4561 7470 c-16 -14 -20 -24 -14 -33 6 -6 13 -24 17 -39 3 -15 18
-39 31 -54 14 -15 23 -34 20 -42 -3 -8 0 -12 7 -10 12 4 43 -19 43 -32 0 -14
59 -100 73 -105 19 -7 35 4 28 20 -3 8 2 19 10 25 11 10 14 9 14 -2 0 -8 9
-23 20 -33 11 -10 20 -26 20 -37 0 -10 5 -18 10 -18 7 0 7 -6 0 -19 -7 -14 -7
-22 2 -27 7 -4 8 -3 4 4 -11 18 19 15 34 -3 10 -12 10 -18 -1 -32 -13 -15 -12
-15 9 -4 12 6 21 8 20 3 -2 -5 9 -23 24 -40 14 -16 28 -41 30 -53 2 -13 8 -23
14 -22 8 1 11 -24 11 -75 0 -76 15 -128 34 -117 5 4 9 -1 9 -9 0 -13 -5 -13
-42 0 -23 8 -45 11 -49 7 -11 -12 9 -34 76 -83 33 -24 113 -97 178 -163 78
-79 117 -113 117 -100 0 13 4 11 14 -9 8 -15 26 -40 40 -55 14 -15 26 -31 26
-36 0 -10 42 -71 53 -75 4 -2 7 -9 7 -15 1 -17 40 -43 77 -51 75 -17 102 24
56 82 -16 21 -36 51 -45 67 -35 70 -57 121 -60 140 -2 11 -12 28 -23 37 -14
12 -16 17 -6 18 12 0 11 3 -1 18 -9 9 -22 44 -29 77 -7 33 -16 65 -22 72 -5 7
-6 17 -3 22 4 5 -2 16 -11 23 -10 7 -19 22 -21 33 -7 52 -34 104 -55 107 -12
2 -20 7 -17 11 4 7 -54 45 -115 76 -11 5 -31 26 -45 45 -14 20 -30 36 -36 36
-14 0 -54 43 -54 58 0 7 -6 12 -12 12 -7 1 -33 21 -58 45 -44 43 -44 44 -26
64 11 12 14 21 8 21 -6 0 -14 -4 -17 -10 -11 -17 -24 -11 -31 15 -6 23 -100
105 -121 105 -17 0 -90 75 -108 111 -37 72 -69 86 -114 49z m169 -233 c0 -1 4
-17 9 -35 6 -20 6 -30 0 -27 -5 4 -9 15 -9 25 0 10 -5 22 -12 26 -8 5 -9 2 -5
-9 3 -10 2 -17 -3 -17 -11 0 -13 23 -3 33 6 7 23 10 23 4z m35 -17 c3 -5 1
-10 -4 -10 -6 0 -11 5 -11 10 0 6 2 10 4 10 3 0 8 -4 11 -10z m257 -442 c2
-21 3 -38 1 -38 -10 0 -21 51 -16 71 7 26 10 20 15 -33z m298 32 c0 -5 -2 -10
-4 -10 -3 0 -8 5 -11 10 -3 6 -1 10 4 10 6 0 11 -4 11 -10z"/>
<path d="M5675 7451 c-3 -6 -8 -41 -10 -77 -3 -36 -7 -69 -10 -74 -14 -23 -24
-124 -14 -137 8 -9 8 -13 0 -13 -6 0 -11 -5 -11 -11 0 -6 7 -9 15 -6 8 4 17 2
20 -3 4 -6 -1 -10 -9 -10 -9 0 -16 -9 -16 -21 0 -11 5 -17 10 -14 15 9 25 -24
11 -38 -6 -6 -11 -16 -11 -21 0 -6 7 -2 15 8 19 25 24 19 29 -32 3 -31 0 -45
-12 -53 -15 -9 -15 -10 1 -5 16 5 18 2 12 -23 -3 -16 -2 -32 3 -35 5 -3 10
-40 11 -83 1 -42 4 -86 6 -97 3 -12 -2 -48 -10 -81 -25 -99 -27 -125 -10 -125
17 0 20 -25 5 -35 -5 -3 -10 2 -10 11 0 13 -3 15 -11 7 -12 -12 -5 -78 10 -87
4 -3 6 6 3 21 -3 16 -1 24 5 20 6 -4 14 -23 17 -42 4 -19 11 -35 16 -35 6 0
19 -9 30 -20 16 -16 24 -18 39 -9 14 9 25 8 51 -4 29 -15 35 -15 53 -2 12 8
28 15 37 15 22 1 68 45 80 76 6 15 7 40 3 58 -5 17 -7 45 -6 61 0 17 -10 61
-23 99 -18 53 -24 90 -24 156 0 66 -6 104 -25 160 -14 41 -21 76 -17 79 9 7 9
27 -3 114 -4 31 -11 60 -16 63 -14 9 -10 24 6 24 11 0 3 16 -25 51 -22 28 -40
57 -40 64 0 33 -26 67 -64 84 -56 26 -103 34 -111 22z m68 -698 c4 -19 2 -33
-3 -33 -6 0 -10 17 -10 37 0 43 5 41 13 -4z m0 -80 c-8 -55 -19 -60 -15 -8 2
25 8 45 12 45 5 0 6 -17 3 -37z m-31 -145 c-8 -8 -9 -4 -5 13 4 13 8 18 11 10
2 -7 -1 -18 -6 -23z m283 -132 c-9 -13 -24 -27 -33 -31 -10 -4 -5 6 12 24 36
37 42 39 21 7z"/>
<path d="M5642 7410 c0 -14 2 -19 5 -12 2 6 2 18 0 25 -3 6 -5 1 -5 -13z"/>
<path d="M4794 7158 c6 -20 -10 -35 -17 -16 -2 7 -8 10 -12 6 -5 -4 -4 -17 1
-29 l10 -22 16 25 c12 17 13 29 6 39 -8 11 -9 11 -4 -3z"/>
<path d="M4970 7140 c0 -6 7 -10 15 -10 8 0 15 2 15 4 0 2 -7 6 -15 10 -8 3
-15 1 -15 -4z"/>
<path d="M6378 7133 c-10 -3 -21 -15 -24 -28 -4 -15 -11 -22 -20 -18 -11 4
-14 -5 -14 -36 0 -45 -21 -77 -58 -92 -13 -5 -22 -15 -19 -22 3 -10 -47 -42
-63 -39 -3 0 -6 -10 -6 -23 -1 -13 -13 -35 -27 -49 -25 -25 -31 -49 -42 -153
-4 -34 -2 -53 5 -53 11 0 13 -33 4 -67 -4 -13 -10 -20 -15 -17 -5 3 -9 0 -9
-5 0 -6 5 -11 11 -11 8 0 9 -4 0 -13 -6 -8 -8 -17 -5 -20 4 -3 -6 -21 -21 -39
-15 -17 -31 -41 -36 -52 -5 -12 -20 -38 -34 -58 -14 -21 -21 -38 -15 -38 5 0
7 -7 4 -14 -3 -8 4 -25 15 -37 12 -13 21 -20 21 -16 0 4 11 2 25 -3 15 -6 34
-6 48 -1 31 13 87 61 87 76 0 7 7 16 16 19 9 4 14 9 11 13 -4 3 -3 11 1 17 5
6 17 39 28 74 10 34 22 62 26 62 5 0 8 7 8 15 0 8 5 15 10 15 6 0 10 9 10 20
0 11 4 20 8 20 5 0 18 8 29 18 11 9 41 34 67 56 26 21 44 41 42 44 -3 3 -14
-1 -23 -9 -17 -13 -17 -13 -3 6 8 10 22 27 31 36 24 24 21 325 -4 362 -9 15
-17 31 -17 36 0 14 -32 28 -52 24z m-229 -377 c-9 -8 -10 -7 -5 7 3 10 7 24 7
30 1 7 3 4 6 -7 3 -10 -1 -23 -8 -30z m1 -36 c0 -5 -2 -10 -4 -10 -3 0 -8 5
-11 10 -3 6 -1 10 4 10 6 0 11 -4 11 -10z m-23 -82 c-3 -8 -6 -5 -6 6 -1 11 2
17 5 13 3 -3 4 -12 1 -19z"/>
<path d="M4806 7095 c-3 -8 -1 -15 4 -15 13 0 22 18 11 24 -5 3 -11 -1 -15 -9z"/>
<path d="M5020 7099 c0 -5 5 -7 10 -4 6 3 10 8 10 11 0 2 -4 4 -10 4 -5 0 -10
-5 -10 -11z"/>
<path d="M5653 6923 c4 -3 2 -12 -4 -20 -14 -16 3 -17 19 -1 17 17 15 28 -5
28 -9 0 -13 -3 -10 -7z"/>
<path d="M6510 6837 c0 -28 -35 -270 -46 -320 -9 -38 -14 -71 -11 -73 8 -9 44
97 61 179 18 86 21 217 6 217 -5 0 -10 -1 -10 -3z"/>
<path d="M3484 6778 l-19 -23 23 19 c21 18 27 26 19 26 -2 0 -12 -10 -23 -22z"/>
<path d="M3962 6742 c-18 -12 -4 -41 22 -48 68 -17 146 -30 146 -24 0 13 -46
49 -82 65 -41 17 -67 19 -86 7z"/>
<path d="M6780 6624 c-17 -31 -29 -58 -27 -61 7 -6 54 57 66 90 18 47 -6 29
-39 -29z"/>
<path d="M4023 6664 c-21 -9 -15 -44 10 -54 36 -16 149 -42 155 -36 23 24
-128 105 -165 90z"/>
<path d="M6101 6594 c0 -11 3 -14 6 -6 3 7 2 16 -1 19 -3 4 -6 -2 -5 -13z"/>
<path d="M6822 6563 c-6 -27 -14 -59 -18 -73 -5 -24 -4 -24 25 7 32 35 47 73
37 98 -11 30 -33 15 -44 -32z"/>
<path d="M4123 6554 c-9 -24 11 -38 36 -25 25 14 27 27 5 35 -25 9 -34 7 -41
-10z"/>
<path d="M6335 6370 c-4 -17 -4 -34 -1 -37 3 -3 11 6 17 21 9 19 9 30 2 37 -8
8 -13 2 -18 -21z"/>
<path d="M4795 6304 c-75 -11 -232 -47 -257 -60 -33 -17 -62 -59 -53 -75 7
-11 36 -9 83 6 22 7 22 6 22 -77 0 -158 47 -276 149 -378 111 -110 262 -174
411 -175 113 0 156 16 336 127 81 50 150 86 152 80 8 -26 64 -92 77 -92 11 0
15 12 15 49 0 126 -221 413 -375 486 -78 37 -215 78 -310 94 -75 12 -210 20
-250 15z m355 -152 c0 -4 -4 -12 -8 -17 -20 -22 -43 -202 -40 -305 3 -100 4
-105 28 -117 21 -10 28 -9 47 9 12 11 34 55 48 98 24 71 24 79 10 106 -23 44
-19 71 15 96 26 19 30 28 30 70 0 26 2 48 5 48 15 0 53 -24 49 -31 -3 -5 1 -6
9 -4 18 8 69 -51 90 -103 20 -50 22 -147 5 -205 -17 -57 -62 -97 -145 -131
-67 -27 -79 -28 -165 -23 -95 5 -158 23 -158 43 0 6 -9 19 -20 29 -11 10 -17
21 -15 25 3 4 -2 13 -10 20 -7 6 -19 36 -26 66 -10 43 -10 65 1 109 7 31 17
58 22 61 4 3 8 13 8 22 0 26 91 111 136 127 44 16 84 19 84 7z"/>
<path d="M6594 6187 c-64 -22 -165 -79 -206 -118 -63 -59 -148 -264 -148 -355
0 -71 23 -84 41 -24 7 22 14 40 17 40 2 0 49 -25 103 -56 88 -50 106 -57 153
-56 83 1 160 49 221 137 51 75 69 151 62 260 -3 49 -9 99 -13 109 -6 16 -4 18
12 12 32 -12 38 -12 42 6 2 10 -8 24 -24 35 -35 23 -200 29 -260 10z m44 -149
c20 -20 13 -55 -14 -77 -15 -12 -30 -21 -35 -21 -15 0 -39 32 -39 52 0 45 58
76 88 46z m-15 -122 c9 -22 -19 -42 -37 -26 -19 15 -10 40 14 40 10 0 20 -6
23 -14z"/>
<path d="M4630 5700 c0 -23 4 -30 20 -30 24 0 26 15 4 24 -9 4 -14 13 -10 21
3 8 1 15 -4 15 -6 0 -10 -13 -10 -30z"/>
<path d="M4654 5649 c-3 -6 -1 -16 5 -22 8 -8 11 -5 11 11 0 24 -5 28 -16 11z"/>
<path d="M6070 5636 c0 -8 20 -41 45 -74 25 -33 57 -86 70 -117 l26 -57 -68 5
c-37 3 -81 11 -98 17 -33 14 -289 15 -360 2 -38 -7 -40 -9 -43 -46 -2 -22 -1
-49 2 -61 6 -24 80 -81 118 -90 14 -4 58 -40 97 -81 69 -70 74 -74 112 -70 25
2 47 12 62 27 13 13 64 60 115 103 l92 80 0 56 c0 31 5 61 11 67 25 25 -29
142 -99 216 -36 37 -82 50 -82 23z m-152 -278 c19 -19 14 -28 -17 -28 -29 0
-57 21 -44 33 11 11 48 8 61 -5z"/>
<path d="M5925 5038 c-2 -7 -6 -56 -8 -108 -3 -52 -13 -126 -24 -164 -16 -63
-23 -73 -78 -121 -58 -50 -96 -74 -150 -95 l-25 -10 22 38 c20 37 20 72 -1 72
-5 0 -31 -18 -57 -41 -40 -35 -49 -38 -56 -25 -5 9 -16 16 -25 16 -8 0 -68
-35 -132 -77 -112 -75 -115 -78 -83 -81 19 -2 53 3 78 12 24 8 44 11 44 7 0
-15 39 -20 73 -10 17 5 50 22 73 39 33 23 53 30 91 30 67 0 144 39 205 102 35
38 51 49 55 39 9 -22 71 -87 77 -80 3 3 -3 32 -14 64 -26 76 -26 101 1 48 19
-40 76 -99 85 -90 9 8 -49 166 -62 171 -7 3 -21 -2 -30 -11 -15 -16 -16 -14
-8 28 12 59 9 197 -5 232 -11 28 -39 37 -46 15z"/>
<path d="M6717 4823 c-12 -11 -7 -47 12 -82 18 -33 19 -34 30 -13 15 29 14 53
-5 80 -16 23 -26 27 -37 15z"/>
<path d="M4462 4688 c8 -22 89 -78 113 -78 31 0 49 31 32 54 -21 29 -153 50
-145 24z"/>
<path d="M6105 4689 c-14 -22 7 -59 70 -118 64 -59 122 -98 132 -87 6 6 -2 17
-91 129 -65 82 -95 103 -111 76z"/>
<path d="M4858 4595 c-2 -3 -42 -12 -89 -21 -46 -8 -88 -19 -93 -24 -29 -29
162 -42 202 -14 26 18 29 49 6 58 -19 7 -19 7 -26 1z"/>
<path d="M5280 4552 c-107 -60 -160 -95 -160 -104 0 -5 20 -8 44 -8 82 0 233
93 224 139 -5 26 -21 22 -108 -27z"/>
<path d="M6097 4594 c-13 -13 -7 -54 13 -94 25 -49 25 -58 0 -35 -18 16 -20
16 -26 1 -4 -9 -4 -33 -1 -53 6 -36 -8 -220 -19 -255 -10 -31 21 -10 44 30 25
45 46 153 38 201 -5 32 -4 33 6 14 21 -44 31 -25 25 48 -8 100 -49 173 -80
143z"/>
<path d="M6294 4585 c-15 -38 72 -107 151 -120 l40 -7 -75 70 c-75 71 -105 86
-116 57z"/>
<path d="M5095 4548 c-38 -11 -94 -27 -124 -35 -69 -19 -51 -33 44 -33 83 0
139 14 166 41 16 16 18 23 8 35 -14 17 -6 17 -94 -8z"/>
<path d="M6493 4544 c-7 -19 20 -44 49 -44 16 0 17 3 8 20 -6 11 -19 24 -30
30 -16 9 -22 7 -27 -6z"/>
<path d="M6010 4281 c0 -10 -15 -49 -33 -85 -19 -37 -31 -69 -27 -71 13 -8 70
35 90 67 31 51 25 108 -11 108 -12 0 -19 -7 -19 -19z"/>
<path d="M5886 4195 c-41 -72 -42 -75 -20 -75 28 0 84 65 84 98 0 55 -26 46
-64 -23z"/>
<path d="M5765 4138 c-61 -84 -59 -100 6 -53 45 34 69 65 69 93 0 39 -28 24
-75 -40z"/>
<path d="M5664 4172 c-13 -8 -54 -86 -54 -102 0 -18 18 -11 55 21 27 24 35 39
33 57 -3 27 -16 36 -34 24z"/>
<path d="M6206 3525 c-209 -338 -262 -455 -173 -385 35 28 112 152 191 309 78
154 100 211 88 223 -6 6 -50 -56 -106 -147z"/>
<path d="M5998 3466 c-32 -51 -86 -131 -121 -178 -36 -47 -70 -94 -76 -106
-33 -62 66 -5 133 76 77 95 164 257 153 286 -12 32 -33 13 -89 -78z"/>
<path d="M5805 3343 c-40 -42 -135 -179 -135 -194 0 -20 41 -7 76 23 56 49
135 159 132 182 -5 35 -35 30 -73 -11z"/>
<path d="M5640 3254 c-36 -41 -67 -101 -57 -110 9 -9 102 64 118 92 10 19 10
26 -1 39 -18 22 -24 19 -60 -21z"/>
<path d="M6551 2954 c-1 -6 8 -21 18 -33 l20 -23 -3 26 c-1 14 -6 29 -11 34
-4 4 -5 1 -1 -5 4 -7 3 -13 -3 -13 -5 0 -12 6 -14 13 -3 7 -6 7 -6 1z"/>
<path d="M6643 2698 c-12 -16 -1 -63 15 -62 7 1 23 2 37 3 21 1 25 6 25 30 0
17 -4 33 -10 36 -5 3 -10 1 -10 -6 0 -10 -3 -10 -12 -1 -15 15 -33 15 -45 0z"/>
<path d="M6602 2622 c4 -23 37 -29 34 -6 -2 10 -10 18 -20 20 -11 2 -16 -3
-14 -14z"/>
<path d="M6565 2593 c-16 -2 -84 -13 -150 -24 -66 -11 -157 -24 -202 -29 -45
-5 -126 -23 -180 -40 -91 -29 -108 -32 -235 -31 -131 0 -138 -1 -166 -24 -36
-31 -75 -121 -70 -166 2 -28 8 -35 29 -37 22 -3 33 6 63 48 20 28 42 52 49 54
7 2 72 13 145 25 73 12 174 34 225 50 50 16 126 36 167 45 253 52 315 67 355
87 41 21 58 39 36 39 -5 0 -15 2 -23 3 -7 2 -26 2 -43 0z"/>
<path d="M7635 1291 c-3 -5 -1 -12 5 -16 5 -3 10 1 10 9 0 18 -6 21 -15 7z"/>
<path d="M7512 1020 c0 -19 2 -27 5 -17 2 9 2 25 0 35 -3 9 -5 1 -5 -18z"/>
<path d="M3120 849 c0 -5 5 -7 10 -4 6 3 10 8 10 11 0 2 -4 4 -10 4 -5 0 -10
-5 -10 -11z"/>
</g>
</svg>
